<svg xmlns="http://www.w3.org/2000/svg" viewBox="0 0 240 240" fill="none">
  <rect width="240" height="240" rx="120" fill="#f4fbfb"/>
  <rect x="54" y="156" width="132" height="46" rx="10" fill="#0f766e"/>
  <rect x="68" y="168" width="104" height="8" rx="2" fill="#99f6e4"/>
  <rect x="68" y="182" width="104" height="8" rx="2" fill="#134e4a"/>
  <rect x="68" y="86" width="104" height="76" rx="12" fill="#115e59"/>
  <rect x="82" y="100" width="76" height="40" rx="4" fill="#ecfeff"/>
  <path d="M92 112h44M92 124h28" stroke="#94a3b8" stroke-width="3" stroke-linecap="round"/>
  <path d="M76 86h88c8 0 12-10 8-18l-10-20H86l-8 20c-2 8 0 18-2 18z" fill="#0f766e"/>
  <rect x="98" y="54" width="44" height="8" rx="2" fill="#ccfbf1"/>
  <circle cx="168" cy="174" r="5" fill="#5eead4"/>
</svg>
